<svg aria-hidden="true" style="position: absolute; width: 0; height: 0; overflow: hidden;" version="1.1" xmlns="http://www.w3.org/2000/svg" xmlns:xlink="http://www.w3.org/1999/xlink">
<defs>
<symbol id="icon-icon-back" viewBox="0 0 32 32">
<path fill="none" stroke="#f9e000" style="stroke: var(--color1, #f9e000)" stroke-linejoin="round" stroke-linecap="round" stroke-miterlimit="4" stroke-width="1.6" d="M22.4 16h-12.8M9.6 16l4.8-4.8M9.6 16l4.8 4.8"></path>
</symbol>
<symbol id="icon-burger-menu" viewBox="0 0 32 32">
<path fill="none" stroke="#f9e000" style="stroke: var(--color1, #f9e000)" stroke-linejoin="round" stroke-linecap="round" stroke-miterlimit="4" stroke-width="2.4" d="M4.8 8.8h22.4M4.8 16h22.4M4.8 23.2h22.4"></path>
</symbol>
<symbol id="icon-icon-close" viewBox="0 0 32 32">
<path fill="#f9e000" style="fill: var(--color1, #f9e000)" d="M18.018 17.827l8.296 7.375c0.277 0.237 0.647 0.368 1.032 0.366s0.752-0.14 1.024-0.382c0.272-0.242 0.426-0.569 0.43-0.91-0-0.364-0.159-0.692-0.411-0.917l-0.001-0.001-8.296-7.374 8.296-7.374c0.267-0.246 0.416-0.576 0.412-0.918-0.008-0.364-0.172-0.688-0.428-0.909l-0.002-0.001c-0.272-0.242-0.64-0.378-1.024-0.382s-0.755 0.128-1.032 0.366l-8.296 7.375-8.297-7.375c-0.268-0.219-0.615-0.352-0.992-0.352-0.012 0-0.025 0-0.037 0l0.002-0c-0.381 0.006-0.744 0.142-1.014 0.382s-0.423 0.563-0.429 0.902c-0.006 0.338 0.136 0.666 0.398 0.912l8.294 7.375-8.296 7.374c-0.136 0.116-0.246 0.257-0.325 0.416l-0.003 0.008c-0.074 0.15-0.118 0.327-0.118 0.514 0 0.179 0.040 0.349 0.111 0.501l-0.003-0.007c0.074 0.16 0.182 0.306 0.32 0.428s0.302 0.219 0.482 0.285c0.165 0.062 0.356 0.098 0.555 0.098 0.208 0 0.407-0.039 0.59-0.11l-0.011 0.004c0.178-0.069 0.341-0.168 0.476-0.292l8.296-7.375z"></path>
</symbol>
<symbol id="icon-icon-arrow-down" viewBox="0 0 32 32">
<path fill="#f9e000" style="fill: var(--color1, #f9e000)" d="M25.185 17.682c-3.741 4.001-7.071 8.181-10.163 12.451 0.611-0.040 1.224-0.083 1.837-0.126-3.791-4.288-7.37-8.654-10.59-13.177-0.42 0.366-0.842 0.736-1.264 1.106 6.857 0.682 13.717 0.318 20.361-1.061-0.502-0.292-1.004-0.585-1.505-0.878-0.305 2.032-1.838 3.853-3.058 5.668-1.292 1.922-2.583 3.841-3.875 5.764 0.639 0.207 1.279 0.413 1.919 0.62 1.763-3.225 3.542-6.441 5.32-9.66 0.409-0.741-0.982-1.452-1.728-0.772-2.903 2.643-5.067 5.568-6.445 8.779-0.373 0.868 1.362 1.496 1.857 0.6 1.204-2.18 2.418-4.357 3.631-6.534-0.627-0.203-1.254-0.405-1.882-0.608-1.114 2.426-2.624 4.69-4.612 6.814 0.621 0.134 1.24 0.27 1.862 0.404-0.051-1.7 0.288-3.302 1.050-4.914-0.651-0.21-1.301-0.42-1.952-0.631-1.103 2.572-1.799 5.17-2.034 7.857 0.72 0.082 1.442 0.162 2.162 0.244 0.122-3.004-0.447-5.899-1.758-8.754-0.689 0.184-1.379 0.369-2.071 0.556 1.344 1.905 3.604 4.042 6.962 3.001 0.74-0.227 1.002-0.961 0.32-1.347-1.981-1.122-4.098-2.024-6.433-2.719-0.022 0.487-0.044 0.974-0.066 1.461 3.159-0.762 6.317-1.524 9.475-2.286 0.953-0.23 0.867-1.143 0.067-1.445-3.023-1.135-6.396-1.178-9.453-0.082-0.789 0.283-0.996 1.137-0.067 1.425 1.966 0.604 3.95 1.004 6.069 1.218 0.020-0.504 0.037-1.004 0.057-1.507-2.606 0.146-5.174 0.107-7.768-0.119-0.948-0.085-1.524 0.634-1.042 1.197 1.353 1.572 2.706 3.143 4.059 4.715 0.259-0.407 0.515-0.81 0.771-1.213-0.792 0.025-2.354-1.931-2.81-2.359-0.932-0.878-1.866-1.753-2.798-2.631-0.73-0.686-2.379-0.121-1.907 0.72 1.131 2.018 2.261 4.035 3.389 6.056 0.681-0.183 1.364-0.366 2.045-0.548-1.144-1.678-2.286-3.355-3.424-5.035-0.58 0.295-1.161 0.589-1.742 0.884 2.080 1.411 4.342 2.597 6.828 3.618 0.395 0.163 1.070 0.049 1.334-0.217 0.63-0.638 0.494-1.153-0.099-1.771-0.576-0.601-1.144-0.528 0.026-0.794 1.322-0.3 2.893-0.314 4.272-0.351-0.265-0.497-0.528-0.997-0.791-1.497-0.797 0.509-1.695 0.788-2.764 0.83 0.419 0.317 0.841 0.631 1.26 0.949 0.245-3.699 0.466-7.399 0.716-11.097 0.059-0.87-1.514-1.292-2.116-0.451-2.311 3.23-3.198 6.765-2.62 10.367 0.113 0.72 1.762 1.032 2.109 0.247 1.481-3.355 2.452-6.785 2.707-10.303 0.147-2.043 0.824-5.489-2.399-6.578-3.263-1.102-4.618 1.152-4.412 3.076 0.429 3.989 0.956 7.973 1.427 11.959 0.108 0.916 1.958 0.909 2.201 0.043 1.299-4.632 2.505-9.317 1.474-14.038-0.194-0.889-1.932-0.929-2.196-0.042-1.38 4.629-2.039 9.322-2.013 14.053 0.005 0.919 1.967 0.889 2.189 0.043 1.114-4.233 1.209-8.515 0.278-12.768-0.199-0.91-1.873-0.898-2.185-0.042-1.615 4.443-2.542 8.965-2.789 13.549-0.053 0.971 1.828 1.231 2.128 0.241 0.624-2.055 0.829-4.143 0.701-6.244-0.067-1.069-0.221-2.135-0.422-3.196-0.090-0.492-0.221-0.98-0.272-1.471-0.009-0.315-0.018-0.63-0.027-0.945-0.048-1.142 0.807-1.392 2.561-0.746-0.53 0.971 1.557 1.649 2.081 0.672 1.672-3.124-4.096-4.328-6.195-1.686-1.339 1.686-0.385 3.82-0.108 5.609 0.402 2.612 0.343 5.198-0.448 7.765 0.708 0.083 1.418 0.162 2.128 0.241 0.27-4.585 1.221-9.104 2.838-13.546-0.728-0.014-1.456-0.028-2.184-0.042 0.901 4.129 0.814 8.255-0.268 12.36 0.729 0.014 1.459 0.029 2.189 0.043-0.020-4.599 0.664-9.153 2.006-13.648-0.731-0.015-1.465-0.027-2.196-0.042 1 4.592-0.199 9.125-1.466 13.629 0.735 0.012 1.468 0.028 2.203 0.040-0.268-2.277-0.535-4.556-0.802-6.836-0.134-1.138-0.268-2.277-0.396-3.417-0.053-0.472-0.404-1.597-0.23-2.051 0.42-0.362 0.838-0.721 1.257-1.080 0.593 0.31 0.919 0.708 0.982 1.187 0.765 1.971 0.125 4.542-0.217 6.539-0.408 2.382-1.131 4.726-2.144 7.015 0.704 0.081 1.407 0.162 2.111 0.243-0.532-3.358 0.291-6.542 2.447-9.549-0.704-0.152-1.41-0.302-2.114-0.454-0.255 3.696-0.538 7.392-0.797 11.086-0.038 0.545 0.455 0.977 1.26 0.949 1.539-0.056 2.714-0.388 3.866-1.119 0.854-0.542 0.434-1.536-0.79-1.496-1.804 0.057-6.027-0.011-7.031 1.412-0.499 0.708 0.86 2.606 1.337 2.116 0.445-0.073 0.89-0.147 1.334-0.217-2.322-0.944-4.402-2.059-6.346-3.363-0.778-0.524-2.228 0.177-1.742 0.884 1.153 1.673 2.302 3.349 3.448 5.027 0.606 0.884 2.578 0.398 2.045-0.548-1.132-2.018-2.265-4.036-3.397-6.054-0.636 0.241-1.272 0.482-1.909 0.723 1.495 1.4 2.953 2.828 4.487 4.205 0.925 0.832 1.547 1.472 3.118 1.423 0.863-0.030 1.169-0.753 0.771-1.213-1.357-1.569-2.714-3.138-4.072-4.707-0.346 0.398-0.695 0.799-1.042 1.197 2.777 0.237 5.532 0.278 8.32 0.123 1.203-0.070 1.254-1.381 0.057-1.507-1.925-0.199-3.723-0.563-5.509-1.12-0.020 0.472-0.042 0.947-0.065 1.422 2.576-0.911 5.252-0.896 7.785 0.065 0.024-0.483 0.047-0.965 0.067-1.445-3.162 0.757-6.323 1.51-9.485 2.267-0.906 0.217-0.941 1.198-0.069 1.464 2.163 0.647 4.088 1.451 5.929 2.493 0.107-0.452 0.213-0.9 0.319-1.347-2.092 0.648-3.341-0.989-4.109-2.079-0.63-0.891-2.524-0.428-2.071 0.556 1.225 2.657 1.755 5.366 1.659 8.157-0.031 0.875 2.098 0.927 2.17 0.041 0.208-2.542 0.791-5.029 1.824-7.47 0.388-0.918-1.512-1.576-1.952-0.631-0.873 1.872-1.269 3.728-1.198 5.7 0.022 0.616 1.366 0.939 1.862 0.404 2.079-2.241 3.71-4.607 4.87-7.169 0.398-0.879-1.387-1.507-1.882-0.608-1.2 2.181-2.398 4.363-3.606 6.542 0.619 0.2 1.238 0.4 1.857 0.6 1.333-3.091 3.364-5.893 6.17-8.441-0.576-0.257-1.152-0.515-1.728-0.772-1.782 3.215-3.565 6.433-5.365 9.646-0.502 0.897 1.319 1.494 1.919 0.62 1.451-2.116 2.903-4.232 4.356-6.348 1.207-1.76 2.566-3.479 2.88-5.453 0.099-0.628-0.684-1.043-1.508-0.875-6.271 1.286-12.749 1.592-19.208 0.932-0.788-0.081-1.671 0.527-1.264 1.106 3.283 4.646 6.909 9.173 11.019 13.474 0.461 0.485 1.499 0.385 1.837-0.126 2.839-4.296 6.034-8.453 9.397-12.552 0.395-0.481-0.735-0.992-1.172-0.525z"></path>
<path fill="#f9e000" style="fill: var(--color1, #f9e000)" d="M17.487 18.854c1.038-4.064 1.028-8.352 1.439-12.472 0.125-1.252 0.669-2.978-0.291-4.145-0.885-1.076-2.663-1.362-4.282-1.423-1.202-0.044-2.7-0.030-3.371 0.82-0.907 1.15-0.412 3.788-0.415 5.044-0.006 4.030 0.365 8.051 1.057 12.049 0.097 0.569 1 0.861 1.665 0.538 2.546-1.233 1.58-4.367 1.551-6.222-0.025-1.625-0.048-3.253-0.072-4.877-0.024-1.64-0.655-4.097 1.299-5.311 0.709-0.439 0.396-1.394-0.686-1.301-0.431 0.038-0.862 0.077-1.291 0.112-1.269 0.112-1.075 1.506 0.205 1.41 0.431-0.031 0.862-0.061 1.293-0.092-0.229-0.434-0.458-0.867-0.686-1.301-2.536 1.512-2.252 3.782-2.223 5.938 0.020 1.627 0.039 3.254 0.060 4.881 0.017 1.207 0.87 4.787-0.672 5.53 0.555 0.179 1.109 0.358 1.665 0.538-0.456-2.665-0.779-5.339-0.927-8.023-0.073-1.344-0.109-2.684-0.104-4.026 0.006-1.117-0.725-3.744 0.945-4.209 1.515-0.419 3.279 0.799 3.49 1.752 0.167 0.762-0.086 1.696-0.128 2.461-0.080 1.437-0.162 2.873-0.241 4.306-0.149 2.647-0.501 5.36-0.242 8.005 0.038 0.4 0.865 0.398 0.962 0.018z"></path>
<path fill="#f9e000" style="fill: var(--color1, #f9e000)" d="M27.427 15.789c-2.339 2.224-4.369 4.58-6.385 6.953-2.124 2.5-4.694 4.993-6.377 7.655-0.353 0.558 0.743 1.070 1.291 0.579 2.394-2.147 4.192-4.752 6.145-7.113 2.115-2.558 4.186-5.11 5.872-7.83 0.143-0.231-0.32-0.459-0.546-0.244z"></path>
</symbol>
<symbol id="icon-arrow-down" viewBox="0 0 32 32">
<path fill="#f9e000" style="fill: var(--color1, #f9e000)" d="M15.6 25.6l-13.51-14.4h27.020l-13.51 14.4z"></path>
</symbol>
</defs>
</svg>
